<svg width="44" height="45" viewBox="0 0 44 45" fill="none" xmlns="http://www.w3.org/2000/svg">
<path fill-rule="evenodd" clip-rule="evenodd" d="M15.95 6H28.05C28.6 6 28.9667 6.18333 29.3333 6.55L37.95 15.1667C38.3167 15.5333 38.5 15.9 38.5 16.45V28.55C38.5 29.1 38.3167 29.4667 37.95 29.8333L29.3333 38.45C28.9667 38.8167 28.6 39 28.05 39H15.95C15.4 39 15.0333 38.8167 14.6667 38.45L6.05 29.8333C5.68333 29.4667 5.5 29.1 5.5 28.55V16.45C5.5 15.9 5.68333 15.5333 6.05 15.1667L14.6667 6.55C15.0333 6.18333 15.4 6 15.95 6Z" stroke="#FDB838" stroke-width="2" stroke-linecap="round" stroke-linejoin="round"/>
<path d="M22.0002 15.1667V22.5001" stroke="#FDB838" stroke-width="2" stroke-linecap="round" stroke-linejoin="round"/>
<path d="M21.9998 29.8334H22.0181" stroke="#FDB838" stroke-width="3" stroke-linecap="round" stroke-linejoin="round"/>
</svg>
