<svg width="65" height="64" viewBox="0 0 65 64" fill="none" xmlns="http://www.w3.org/2000/svg">
<g filter="url(#filter0_i_4501_338)">
<mask id="path-1-inside-1_4501_338" fill="white">
<path d="M0.799988 32C0.799988 14.3269 15.1269 0 32.8 0V0C50.4731 0 64.8 14.3269 64.8 32V32C64.8 49.6731 50.4731 64 32.8 64H3.35999C1.94614 64 0.799988 62.8538 0.799988 61.44V32Z"/>
</mask>
<path d="M0.799988 32C0.799988 14.3269 15.1269 0 32.8 0V0C50.4731 0 64.8 14.3269 64.8 32V32C64.8 49.6731 50.4731 64 32.8 64H3.35999C1.94614 64 0.799988 62.8538 0.799988 61.44V32Z" stroke="#319697" stroke-width="25.6" mask="url(#path-1-inside-1_4501_338)"/>
</g>
<path d="M13.6 32C13.6 20.8017 21.9232 14.0056 32.8 12.8C31.9133 12.7117 32 12 26.4 12C15.6 12 0.799988 22.2746 0.799988 37.12V61.44C0.799988 62.147 1.08653 62.787 1.54979 63.2502L13.6 51.2V32Z" fill="#316A6B"/>
<defs>
<filter id="filter0_i_4501_338" x="0.799988" y="0" width="64" height="65.28" filterUnits="userSpaceOnUse" color-interpolation-filters="sRGB">
<feFlood flood-opacity="0" result="BackgroundImageFix"/>
<feBlend mode="normal" in="SourceGraphic" in2="BackgroundImageFix" result="shape"/>
<feColorMatrix in="SourceAlpha" type="matrix" values="0 0 0 0 0 0 0 0 0 0 0 0 0 0 0 0 0 0 127 0" result="hardAlpha"/>
<feOffset dy="1.28"/>
<feGaussianBlur stdDeviation="1.28"/>
<feComposite in2="hardAlpha" operator="arithmetic" k2="-1" k3="1"/>
<feColorMatrix type="matrix" values="0 0 0 0 1 0 0 0 0 1 0 0 0 0 1 0 0 0 0.2 0"/>
<feBlend mode="normal" in2="shape" result="effect1_innerShadow_4501_338"/>
</filter>
</defs>
</svg>
