<svg width="32" height="32" viewBox="0 0 32 32" fill="none" xmlns="http://www.w3.org/2000/svg">
<path d="M6.66667 9.33325H8C8.70724 9.33325 9.38552 9.0523 9.88562 8.5522C10.3857 8.05211 10.6667 7.37383 10.6667 6.66659C10.6667 6.31296 10.8071 5.97382 11.0572 5.72378C11.3072 5.47373 11.6464 5.33325 12 5.33325H20C20.3536 5.33325 20.6928 5.47373 20.9428 5.72378C21.1929 5.97382 21.3333 6.31296 21.3333 6.66659C21.3333 7.37383 21.6143 8.05211 22.1144 8.5522C22.6145 9.0523 23.2928 9.33325 24 9.33325H25.3333C26.0406 9.33325 26.7189 9.6142 27.219 10.1143C27.719 10.6144 28 11.2927 28 11.9999V23.9999C28 24.7072 27.719 25.3854 27.219 25.8855C26.7189 26.3856 26.0406 26.6666 25.3333 26.6666H6.66667C5.95942 26.6666 5.28115 26.3856 4.78105 25.8855C4.28095 25.3854 4 24.7072 4 23.9999V11.9999C4 11.2927 4.28095 10.6144 4.78105 10.1143C5.28115 9.6142 5.95942 9.33325 6.66667 9.33325Z" stroke="white" stroke-width="3" stroke-linecap="round" stroke-linejoin="round"/>
<path d="M12 17.3333C12 18.3941 12.4214 19.4115 13.1716 20.1617C13.9217 20.9118 14.9391 21.3333 16 21.3333C17.0609 21.3333 18.0783 20.9118 18.8284 20.1617C19.5786 19.4115 20 18.3941 20 17.3333C20 16.2724 19.5786 15.255 18.8284 14.5048C18.0783 13.7547 17.0609 13.3333 16 13.3333C14.9391 13.3333 13.9217 13.7547 13.1716 14.5048C12.4214 15.255 12 16.2724 12 17.3333Z" stroke="white" stroke-width="3" stroke-linecap="round" stroke-linejoin="round"/>
</svg>
