<svg width="24" height="24" viewBox="0 0 24 24" fill="none" xmlns="http://www.w3.org/2000/svg">
<path d="M10.325 4.317L11.2967 4.55329L11.2968 4.55276L10.325 4.317ZM13.675 4.317L14.6469 4.08152L14.6468 4.08124L13.675 4.317ZM16.248 5.383L15.7277 4.52899L15.7274 4.52919L16.248 5.383ZM18.618 7.753L19.472 8.2732L19.4722 8.27302L18.618 7.753ZM19.683 10.325L19.4467 11.2967L19.4472 11.2968L19.683 10.325ZM19.683 13.675L19.9185 14.6469L19.9188 14.6468L19.683 13.675ZM18.617 16.248L19.471 15.7277L19.4708 15.7274L18.617 16.248ZM16.247 18.618L15.7268 19.472L15.727 19.4722L16.247 18.618ZM13.675 19.683L12.7033 19.4467L12.7032 19.4472L13.675 19.683ZM10.325 19.683L9.35312 19.9185L9.35319 19.9188L10.325 19.683ZM7.752 18.617L8.27226 19.471L8.27258 19.4708L7.752 18.617ZM5.382 16.247L4.52795 15.7268L4.52784 15.727L5.382 16.247ZM4.317 13.675L4.5533 12.7033L4.55276 12.7032L4.317 13.675ZM4.317 10.325L4.08152 9.35312L4.08124 9.35319L4.317 10.325ZM5.383 7.752L4.52899 8.27226L4.52919 8.27258L5.383 7.752ZM7.753 5.382L7.23298 6.23616L7.23349 6.23646L7.753 5.382ZM11.2968 4.55276C11.4756 3.81575 12.5244 3.81575 12.7032 4.55276L14.6468 4.08124C13.9736 1.30625 10.0264 1.30625 9.35319 4.08124L11.2968 4.55276ZM12.7031 4.55248C12.8041 4.9693 13.0021 5.35638 13.281 5.68222L14.8005 4.38178C14.7263 4.29518 14.6737 4.1923 14.6469 4.08152L12.7031 4.55248ZM13.281 5.68222C13.5598 6.00805 13.9117 6.26344 14.3079 6.4276L15.0734 4.5799C14.9681 4.53627 14.8746 4.46839 14.8005 4.38178L13.281 5.68222ZM14.3079 6.4276C14.7041 6.59175 15.1335 6.66003 15.5611 6.62688L15.4065 4.63286C15.2928 4.64167 15.1787 4.62353 15.0734 4.5799L14.3079 6.4276ZM15.5611 6.62688C15.9887 6.59372 16.4024 6.46008 16.7686 6.23681L15.7274 4.52919C15.6301 4.58853 15.5201 4.62405 15.4065 4.63286L15.5611 6.62688ZM16.7683 6.23701C17.416 5.84238 18.1589 6.58414 17.7638 7.23298L19.4722 8.27302C20.9571 5.83386 18.166 3.04362 15.7277 4.52899L16.7683 6.23701ZM17.764 7.2328C17.541 7.59883 17.4076 8.0123 17.3745 8.4396L19.3685 8.59395C19.3773 8.48038 19.4128 8.37048 19.472 8.2732L17.764 7.2328ZM17.3745 8.4396C17.3414 8.8669 17.4096 9.29598 17.5736 9.69195L19.4215 8.92681C19.3779 8.82156 19.3597 8.70752 19.3685 8.59395L17.3745 8.4396ZM17.5736 9.69195C17.7376 10.0879 17.9927 10.4396 18.3181 10.7185L19.6193 9.19964C19.5328 9.12553 19.465 9.03205 19.4215 8.92681L17.5736 9.69195ZM18.3181 10.7185C18.6436 10.9973 19.0303 11.1954 19.4467 11.2967L19.9193 9.35332C19.8086 9.3264 19.7058 9.27375 19.6193 9.19964L18.3181 10.7185ZM19.4472 11.2968C20.1843 11.4756 20.1843 12.5244 19.4472 12.7032L19.9188 14.6468C22.6937 13.9736 22.6937 10.0264 19.9188 9.35319L19.4472 11.2968ZM19.4475 12.7031C19.0307 12.8041 18.6436 13.0021 18.3178 13.281L19.6182 14.8005C19.7048 14.7263 19.8077 14.6737 19.9185 14.6469L19.4475 12.7031ZM18.3178 13.281C17.9919 13.5598 17.7366 13.9117 17.5724 14.3079L19.4201 15.0734C19.4637 14.9681 19.5316 14.8746 19.6182 14.8005L18.3178 13.281ZM17.5724 14.3079C17.4082 14.7041 17.34 15.1335 17.3731 15.5611L19.3671 15.4065C19.3583 15.2928 19.3765 15.1787 19.4201 15.0734L17.5724 14.3079ZM17.3731 15.5611C17.4063 15.9887 17.5399 16.4024 17.7632 16.7686L19.4708 15.7274C19.4115 15.6301 19.3759 15.5201 19.3671 15.4065L17.3731 15.5611ZM17.763 16.7683C18.1576 17.416 17.4159 18.1589 16.767 17.7638L15.727 19.4722C18.1661 20.9571 20.9564 18.166 19.471 15.7277L17.763 16.7683ZM16.7672 17.764C16.4012 17.541 15.9877 17.4076 15.5604 17.3745L15.4061 19.3685C15.5196 19.3773 15.6295 19.4128 15.7268 19.472L16.7672 17.764ZM15.5604 17.3745C15.1331 17.3414 14.704 17.4096 14.308 17.5736L15.0732 19.4215C15.1784 19.3779 15.2925 19.3597 15.4061 19.3685L15.5604 17.3745ZM14.308 17.5736C13.9121 17.7376 13.5604 17.9927 13.2815 18.3181L14.8004 19.6193C14.8745 19.5328 14.9679 19.465 15.0732 19.4215L14.308 17.5736ZM13.2815 18.3181C13.0027 18.6436 12.8046 19.0303 12.7033 19.4467L14.6467 19.9193C14.6736 19.8086 14.7263 19.7058 14.8004 19.6193L13.2815 18.3181ZM12.7032 19.4472C12.5244 20.1843 11.4756 20.1843 11.2968 19.4472L9.35319 19.9188C10.0264 22.6937 13.9736 22.6937 14.6468 19.9188L12.7032 19.4472ZM11.2969 19.4475C11.1959 19.0307 10.9979 18.6436 10.719 18.3178L9.19954 19.6182C9.27366 19.7048 9.32628 19.8077 9.35312 19.9185L11.2969 19.4475ZM10.719 18.3178C10.4402 17.9919 10.0883 17.7366 9.6921 17.5724L8.92659 19.4201C9.0319 19.4637 9.12542 19.5316 9.19954 19.6182L10.719 18.3178ZM9.6921 17.5724C9.29589 17.4082 8.86651 17.34 8.43891 17.3731L8.59352 19.3671C8.70716 19.3583 8.82129 19.3765 8.92659 19.4201L9.6921 17.5724ZM8.43891 17.3731C8.01132 17.4063 7.5976 17.5399 7.23142 17.7632L8.27258 19.4708C8.36991 19.4115 8.47987 19.3759 8.59352 19.3671L8.43891 17.3731ZM7.23174 17.763C6.58396 18.1576 5.84113 17.4159 6.23616 16.767L4.52784 15.727C3.04287 18.1661 5.83404 20.9564 8.27226 19.471L7.23174 17.763ZM6.23605 16.7672C6.45899 16.4012 6.59243 15.9877 6.6255 15.5604L4.63147 15.4061C4.62268 15.5196 4.58721 15.6295 4.52795 15.7268L6.23605 16.7672ZM6.6255 15.5604C6.65858 15.1331 6.59036 14.704 6.4264 14.308L4.57855 15.0732C4.62213 15.1784 4.64026 15.2925 4.63147 15.4061L6.6255 15.5604ZM6.4264 14.308C6.26243 13.9121 6.00735 13.5604 5.68188 13.2815L4.38067 14.8004C4.46717 14.8745 4.53497 14.9679 4.57855 15.0732L6.4264 14.308ZM5.68188 13.2815C5.35641 13.0027 4.96974 12.8046 4.5533 12.7033L4.0807 14.6467C4.19139 14.6736 4.29416 14.7263 4.38067 14.8004L5.68188 13.2815ZM4.55276 12.7032C3.81575 12.5244 3.81575 11.4756 4.55276 11.2968L4.08124 9.35319C1.30625 10.0264 1.30625 13.9736 4.08124 14.6468L4.55276 12.7032ZM4.55248 11.2969C4.9693 11.1959 5.35638 10.9979 5.68222 10.719L4.38178 9.19954C4.29518 9.27366 4.1923 9.32628 4.08152 9.35312L4.55248 11.2969ZM5.68222 10.719C6.00805 10.4402 6.26344 10.0883 6.4276 9.6921L4.5799 8.92659C4.53627 9.0319 4.46839 9.12542 4.38178 9.19954L5.68222 10.719ZM6.4276 9.6921C6.59175 9.29588 6.66003 8.86651 6.62688 8.43891L4.63286 8.59352C4.64167 8.70716 4.62353 8.82129 4.5799 8.92659L6.4276 9.6921ZM6.62688 8.43891C6.59372 8.01132 6.46008 7.5976 6.23681 7.23142L4.52919 8.27258C4.58853 8.36991 4.62405 8.47987 4.63286 8.59352L6.62688 8.43891ZM6.23701 7.23174C5.84238 6.58396 6.58414 5.84113 7.23298 6.23616L8.27302 4.52784C5.83386 3.04287 3.04362 5.83404 4.52899 8.27226L6.23701 7.23174ZM7.23349 6.23646C8.81147 7.19588 10.8607 6.34603 11.2967 4.55329L9.35332 4.08071C9.23726 4.55797 8.69453 4.78412 8.27251 4.52754L7.23349 6.23646ZM8 12C8 13.0609 8.42143 14.0783 9.17157 14.8284L10.5858 13.4142C10.2107 13.0391 10 12.5304 10 12H8ZM9.17157 14.8284C9.92172 15.5786 10.9391 16 12 16V14C11.4696 14 10.9609 13.7893 10.5858 13.4142L9.17157 14.8284ZM12 16C13.0609 16 14.0783 15.5786 14.8284 14.8284L13.4142 13.4142C13.0391 13.7893 12.5304 14 12 14V16ZM14.8284 14.8284C15.5786 14.0783 16 13.0609 16 12H14C14 12.5304 13.7893 13.0391 13.4142 13.4142L14.8284 14.8284ZM16 12C16 10.9391 15.5786 9.92172 14.8284 9.17157L13.4142 10.5858C13.7893 10.9609 14 11.4696 14 12H16ZM14.8284 9.17157C14.0783 8.42143 13.0609 8 12 8V10C12.5304 10 13.0391 10.2107 13.4142 10.5858L14.8284 9.17157ZM12 8C10.9391 8 9.92172 8.42143 9.17157 9.17157L10.5858 10.5858C10.9609 10.2107 11.4696 10 12 10V8ZM9.17157 9.17157C8.42143 9.92172 8 10.9391 8 12H10C10 11.4696 10.2107 10.9609 10.5858 10.5858L9.17157 9.17157Z" fill="#797B95"/>
</svg>
